# xmcd
#
# Track frame offsets:
#	150
#	17175
#	33532
#	48380
#	64115
#	84222
#	100490
#	113632
#	142565
#	157630
#
# Disc length: 2282 seconds
#
# Revision: 1
# Processed by: cddbd v1.4PL0 Copyright (c) Steve Scherf et al.
# Submitted via: audiograbber 1.80
#
DISCID=6e08e80a
DTITLE=Kristi Johnston - Kristi Johnston
DYEAR=1900
DGENRE=
TTITLE0=No Need To Worry
TTITLE1=Pickin' Up
TTITLE2=Ain't That Lovin' You
TTITLE3=That Would Be Fine
TTITLE4=One Chance
TTITLE5=We Get By
TTITLE6=Gonna Be There
TTITLE7=So Glad I Found You
TTITLE8=Ten More Miles
TTITLE9=How Many More Years
EXTD=
EXTT0=
EXTT1=
EXTT2=
EXTT3=
EXTT4=
EXTT5=
EXTT6=
EXTT7=
EXTT8=
EXTT9=
PLAYORDER=
